<?xml version="1.0" encoding="utf-8"?>
<svg width="888px" height="113px" viewBox="0 0 888 113" version="1.1" xmlns:xlink="http://www.w3.org/1999/xlink" xmlns="http://www.w3.org/2000/svg">
  <defs>
    <filter filterUnits="userSpaceOnUse" color-interpolation-filters="sRGB" id="filter_1">
      <feFlood flood-opacity="0" result="BackgroundImageFix" />
      <feColorMatrix in="SourceAlpha" type="matrix" values="0 0 0 0 0 0 0 0 0 0 0 0 0 0 0 0 0 0 128 0" />
      <feOffset dx="0" dy="2" />
      <feGaussianBlur stdDeviation="2" />
      <feColorMatrix type="matrix" values="0 0 0 0 0 0 0 0 0 0 0 0 0 0 0 0 0 0 0.5019608 0" />
      <feBlend mode="normal" in2="BackgroundImageFix" result="effect0_dropShadow" />
      <feBlend mode="normal" in="SourceGraphic" in2="effect0_dropShadow" result="shape" />
    </filter>
  </defs>
  <g filter="url(#filter_1)">
    <g id="Light_toggle">
      <path d="M859.203 0C868.481 0 876 7.51896 876 16.7969L876 84.2031C876 93.481 868.481 101 859.203 101L16.7969 101C7.51896 101 0 93.481 0 84.2031L0 16.7969C0 7.51896 7.51896 0 16.7969 0L859.203 0Z" id="Rectangle" fill="#F5F6F6" stroke="none" />
      <path d="M837.728 12.625C847.006 12.625 854.525 20.144 854.525 29.4219L854.525 71.5781C854.525 80.856 847.006 88.375 837.728 88.375L757.322 88.375C748.044 88.375 740.525 80.856 740.525 71.5781L740.525 29.4219C740.525 20.144 748.044 12.625 757.322 12.625L837.728 12.625Z" id="Rectangle" fill="#FFFFFF" stroke="none" />
      <g id="1D" transform="translate(53.97482 27.39881)">
        <g id="1D" fill="#162C5B">
          <path d="M4.8384 35.91L4.8384 14.0616L1.512 14.0616L2.7594 9.45L9.45 9.45L9.45 35.91L4.8384 35.91ZM14.346 35.91L14.346 9.45L23.1156 9.45Q25.8561 9.45 28.247 10.48Q30.6378 11.5101 32.4617 13.3339Q34.2855 15.1578 35.3156 17.5486Q36.3456 19.9395 36.3456 22.68Q36.3456 25.4205 35.3156 27.8113Q34.2855 30.2022 32.4617 32.0261Q30.6378 33.8499 28.247 34.88C26.653 35.5667 24.9426 35.91 23.1156 35.91L14.346 35.91ZM18.9576 31.2984L23.1156 31.2984Q24.8733 31.2984 26.4326 30.6274Q27.9918 29.9565 29.1825 28.7752Q30.3732 27.594 31.0536 26.0347Q31.734 24.4755 31.734 22.68Q31.734 20.8845 31.0536 19.3347Q30.3732 17.7849 29.1825 16.5942Q27.9918 15.4035 26.442 14.7325Q24.8922 14.0616 23.1156 14.0616L18.9576 14.0616L18.9576 31.2984Z" />
        </g>
      </g>
      <g id="1W" transform="translate(179.21942 27.39881)">
        <g id="1W" fill="#162C5B">
          <path d="M4.8384 35.91L4.8384 14.0616L1.512 14.0616L2.7594 9.45L9.45 9.45L9.45 35.91L4.8384 35.91ZM20.3751 35.91L13.6089 9.45L18.3717 9.45L22.9833 27.5373L27.5949 9.45L31.8096 9.45L36.4212 27.5373L41.0139 9.45L45.7767 9.45L39.0483 35.91L33.813 35.91L29.6928 19.8828L25.6293 35.91L20.3751 35.91Z" />
        </g>
      </g>
      <g id="1M" transform="translate(298.96042 27.39881)">
        <g id="1M" fill="#162C5B">
          <path d="M4.8384 35.91L4.8384 14.0616L1.512 14.0616L2.7594 9.45L9.45 9.45L9.45 35.91L4.8384 35.91ZM14.346 35.91L19.4868 9.45L23.3046 9.45L29.7495 26.4033L36.1944 9.45L40.0122 9.45L45.153 35.91L40.4469 35.91L37.2717 19.5426L31.3182 35.3052L28.1619 35.3052L22.2084 19.5426L19.0521 35.91L14.346 35.91Z" />
        </g>
      </g>
      <g id="6M" transform="translate(418.90286 27.39881)">
        <g id="6M" fill="#162C5B">
          <path d="M10.2438 36.4014Q7.7112 36.4014 5.5944 35.1351Q3.4776 33.8688 2.2113 31.752Q0.945 29.6352 0.945 27.0648Q0.945 25.7418 1.25685 24.6078Q1.5687 23.4738 2.2302 22.3209L9.639 9.45L14.9877 9.45L10.017 18.0495Q11.5479 17.9361 12.9654 18.3141Q14.3829 18.6921 15.5925 19.5048Q16.8021 20.3175 17.7093 21.4704Q18.6165 22.6233 19.1173 24.0408Q19.6182 25.4583 19.6182 27.0648Q19.6182 28.9926 18.8906 30.6747Q18.1629 32.3568 16.8777 33.6515Q15.5925 34.9461 13.8915 35.6737Q12.1905 36.4014 10.2438 36.4014ZM10.2438 31.7898Q11.6235 31.7898 12.7008 31.1189Q13.7781 30.4479 14.3924 29.3706Q15.0066 28.2933 15.0066 27.0837Q15.0066 25.7796 14.3829 24.7023Q13.7592 23.625 12.6913 22.9824Q11.6235 22.3398 10.2816 22.3398Q8.9019 22.3398 7.83405 23.0107Q6.7662 23.6817 6.1614 24.759Q5.5566 25.8363 5.5566 27.0837Q5.5566 28.4256 6.2181 29.484Q6.8796 30.5424 7.94745 31.1661Q9.0153 31.7898 10.2438 31.7898ZM22.6242 35.91L27.765 9.45L31.5828 9.45L38.0277 26.4033L44.4726 9.45L48.2904 9.45L53.4312 35.91L48.7251 35.91L45.5499 19.5426L39.5964 35.3052L36.4401 35.3052L30.4866 19.5426L27.3303 35.91L22.6242 35.91Z" />
        </g>
      </g>
      <g id="1Y" transform="translate(543.44244 27.39881)">
        <g id="1Y" fill="#162C5B">
          <path d="M4.8384 35.91L4.8384 14.0616L1.512 14.0616L2.7594 9.45L9.45 9.45L9.45 35.91L4.8384 35.91ZM30.5622 9.45L36.0054 9.45L26.9145 23.9841L26.9145 35.91L22.3029 35.91L22.3029 23.9841L13.212 9.45L18.6552 9.45L24.6087 18.9567L30.5622 9.45Z" />
        </g>
      </g>
      <g id="5Y" transform="translate(648.1799 27.39881)">
        <g id="5Y" fill="#162C5B">
          <path d="M10.395 36.4014Q7.8435 36.4014 5.7834 35.1634Q3.7233 33.9255 2.52315 31.8654Q1.323 29.8053 1.323 27.3483L5.9346 27.3483Q5.9346 28.5768 6.5394 29.5879Q7.1442 30.5991 8.15535 31.1945Q9.1665 31.7898 10.395 31.7898Q11.6235 31.7898 12.6252 31.1945Q13.6269 30.5991 14.2317 29.5879Q14.8365 28.5768 14.8365 27.3483Q14.8365 26.1198 14.3168 25.0897Q13.797 24.0597 12.6347 23.4454Q11.4723 22.8312 9.5634 22.8312L2.7594 22.8312L5.5566 9.45L18.5598 9.45L18.5598 14.0616L9.2988 14.0616L8.4483 18.2196L10.3194 18.2385Q13.0032 18.333 15.0633 19.5426Q17.1234 20.7522 18.2857 22.784Q19.4481 24.8157 19.4481 27.3483Q19.4481 29.2005 18.7488 30.8448Q18.0495 32.4891 16.8021 33.7365Q15.5547 34.9839 13.9199 35.6926Q12.285 36.4014 10.395 36.4014ZM39.8043 9.45L45.2475 9.45L36.1566 23.9841L36.1566 35.91L31.545 35.91L31.545 23.9841L22.4541 9.45L27.8973 9.45L33.8508 18.9567L39.8043 9.45Z" />
        </g>
      </g>
      <g id="Max" transform="translate(760.8237 27.39881)">
        <g id="Max" fill="#162C5B">
          <path d="M2.268 35.91L7.4088 9.45L11.2266 9.45L17.6715 26.4033L24.1164 9.45L27.9342 9.45L33.075 35.91L28.3689 35.91L25.1937 19.5426L19.2402 35.3052L16.0839 35.3052L10.1304 19.5426L6.9741 35.91L2.268 35.91ZM49.4622 17.01L54.0738 17.01L54.0738 35.91L49.4622 35.91L49.2543 33.5664Q48.4794 34.8327 47.2037 35.6171Q45.9279 36.4014 44.1891 36.4014Q42.0912 36.4014 40.2579 35.6076Q38.4246 34.8138 37.0354 33.4152Q35.6463 32.0166 34.8619 30.1833Q34.0776 28.35 34.0776 26.2521Q34.0776 24.2298 34.8242 22.4532Q35.5707 20.6766 36.9126 19.3347Q38.2545 17.9928 40.0122 17.2368Q41.7699 16.4808 43.7922 16.4808Q45.6633 16.4808 47.1469 17.3124Q48.6306 18.144 49.6701 19.4292L49.4622 17.01ZM44.0757 31.9599Q45.5499 31.9599 46.6839 31.2228Q47.8179 30.4857 48.4605 29.2288Q49.1031 27.972 49.1031 26.46Q49.1031 24.9291 48.4605 23.6722Q47.8179 22.4154 46.6744 21.6783Q45.531 20.9412 44.0757 20.9412Q42.6204 20.9412 41.4202 21.6877Q40.2201 22.4343 39.5113 23.6817Q38.8026 24.9291 38.8026 26.46Q38.8026 27.9909 39.5208 29.2383Q40.239 30.4857 41.4391 31.2228Q42.6393 31.9599 44.0757 31.9599ZM56.2671 35.91L63.1845 26.4222L56.3238 16.9911L62.0127 16.9911L66.0195 22.491L70.0452 16.9911L75.7341 16.9911L68.8734 26.4222L75.7908 35.91L70.1019 35.91L66.0195 30.3156L61.956 35.91L56.2671 35.91Z" />
        </g>
      </g>
    </g>
  </g>
</svg>